<svg xmlns="http://www.w3.org/2000/svg" viewBox="0 0 1200 700" font-family="'Segoe UI', Inter, sans-serif">
  <defs>
    <linearGradient id="bg" x1="0%" y1="0%" x2="100%" y2="100%">
      <stop offset="0%" style="stop-color:#050505"/>
      <stop offset="100%" style="stop-color:#0a0a0a"/>
    </linearGradient>
    <linearGradient id="redGrad" x1="0%" y1="0%" x2="100%" y2="0%">
      <stop offset="0%" style="stop-color:#b91c2c"/>
      <stop offset="50%" style="stop-color:#e63946"/>
      <stop offset="100%" style="stop-color:#ff4d5a"/>
    </linearGradient>
    <filter id="glow">
      <feGaussianBlur stdDeviation="6" result="blur"/>
      <feMerge><feMergeNode in="blur"/><feMergeNode in="SourceGraphic"/></feMerge>
    </filter>
    <filter id="softGlow">
      <feGaussianBlur stdDeviation="20" result="blur"/>
      <feMerge><feMergeNode in="blur"/><feMergeNode in="SourceGraphic"/></feMerge>
    </filter>
    <clipPath id="roundedMain">
      <rect x="270" y="10" width="920" height="680" rx="16"/>
    </clipPath>
  </defs>

  <!-- Background -->
  <rect width="1200" height="700" fill="url(#bg)"/>
  <!-- Subtle red ambient glow -->
  <ellipse cx="100" cy="50" rx="300" ry="200" fill="rgba(230,57,70,0.04)" filter="url(#softGlow)"/>
  <ellipse cx="1100" cy="650" rx="300" ry="200" fill="rgba(230,57,70,0.03)" filter="url(#softGlow)"/>

  <!-- Sidebar -->
  <rect x="0" y="0" width="260" height="700" fill="#0a0a0a" stroke="#1e1e1e" stroke-width="1"/>
  <!-- Sidebar red gradient wash -->
  <rect x="0" y="0" width="260" height="200" fill="rgba(230,57,70,0.03)" rx="0"/>

  <!-- Logo -->
  <g transform="translate(20, 24)">
    <polygon points="12,2 2,7 12,12 22,7" fill="none" stroke="#e63946" stroke-width="2.5" stroke-linejoin="round"/>
    <polyline points="2,12 12,17 22,12" fill="none" stroke="#e63946" stroke-width="2" stroke-linejoin="round" opacity="0.7"/>
    <polyline points="2,17 12,22 22,17" fill="none" stroke="#e63946" stroke-width="2" stroke-linejoin="round" opacity="0.4"/>
  </g>
  <text x="50" y="40" fill="#e63946" font-size="18" font-weight="800" letter-spacing="-0.5">TaskFlow</text>

  <!-- Nav Label -->
  <text x="20" y="85" fill="#5a5a5a" font-size="9" font-weight="700" letter-spacing="1.2" text-transform="uppercase">VIEWS</text>

  <!-- Active Nav Item -->
  <rect x="12" y="94" width="236" height="34" rx="8" fill="rgba(230,57,70,0.15)"/>
  <rect x="12" y="94" width="236" height="34" rx="8" fill="none" stroke="rgba(230,57,70,0.1)" stroke-width="1"/>
  <g transform="translate(22, 102)">
    <rect x="0" y="0" width="7" height="7" rx="1.5" fill="none" stroke="#e63946" stroke-width="1.5"/>
    <rect x="10" y="0" width="7" height="7" rx="1.5" fill="none" stroke="#e63946" stroke-width="1.5"/>
    <rect x="0" y="10" width="7" height="7" rx="1.5" fill="none" stroke="#e63946" stroke-width="1.5"/>
    <rect x="10" y="10" width="7" height="7" rx="1.5" fill="none" stroke="#e63946" stroke-width="1.5"/>
  </g>
  <text x="52" y="116" fill="#e63946" font-size="13" font-weight="600">All Tasks</text>
  <rect x="210" y="103" width="26" height="16" rx="8" fill="#141414"/>
  <text x="223" y="115" fill="#5a5a5a" font-size="10" font-weight="600" text-anchor="middle">5</text>

  <!-- Nav Items -->
  <g opacity="0.7">
    <circle cx="33" cy="148" r="8" fill="none" stroke="#a0a0a0" stroke-width="1.5"/>
    <text x="52" y="152" fill="#a0a0a0" font-size="13" font-weight="500">Today</text>
    <rect x="210" y="140" width="26" height="16" rx="8" fill="#141414"/>
    <text x="223" y="152" fill="#5a5a5a" font-size="10" font-weight="600" text-anchor="middle">2</text>
  </g>

  <g opacity="0.7">
    <rect x="22" y="168" width="18" height="18" rx="3" fill="none" stroke="#a0a0a0" stroke-width="1.5"/>
    <text x="52" y="182" fill="#a0a0a0" font-size="13" font-weight="500">Upcoming</text>
    <rect x="210" y="170" width="26" height="16" rx="8" fill="#141414"/>
    <text x="223" y="182" fill="#5a5a5a" font-size="10" font-weight="600" text-anchor="middle">3</text>
  </g>

  <g opacity="0.7">
    <circle cx="33" cy="210" r="8" fill="none" stroke="#a0a0a0" stroke-width="1.5"/>
    <polyline points="28,210 32,214 39,206" fill="none" stroke="#a0a0a0" stroke-width="1.5" stroke-linecap="round" stroke-linejoin="round"/>
    <text x="52" y="214" fill="#a0a0a0" font-size="13" font-weight="500">Completed</text>
    <rect x="210" y="202" width="26" height="16" rx="8" fill="#141414"/>
    <text x="223" y="214" fill="#5a5a5a" font-size="10" font-weight="600" text-anchor="middle">8</text>
  </g>

  <g opacity="0.7">
    <circle cx="33" cy="242" r="8" fill="none" stroke="#a0a0a0" stroke-width="1.5"/>
    <line x1="33" y1="237" x2="33" y2="242" stroke="#a0a0a0" stroke-width="1.5" stroke-linecap="round"/>
    <circle cx="33" cy="246" r="1" fill="#a0a0a0"/>
    <text x="52" y="246" fill="#a0a0a0" font-size="13" font-weight="500">Overdue</text>
    <rect x="210" y="234" width="26" height="16" rx="8" fill="rgba(230,57,70,0.15)"/>
    <text x="223" y="246" fill="#e63946" font-size="10" font-weight="600" text-anchor="middle">1</text>
  </g>

  <!-- Categories Label -->
  <text x="20" y="290" fill="#5a5a5a" font-size="9" font-weight="700" letter-spacing="1.2">CATEGORIES</text>

  <g>
    <circle cx="28" cy="312" r="5" fill="#e63946"/>
    <text x="44" y="316" fill="#a0a0a0" font-size="13" font-weight="500">Work</text>
  </g>
  <g>
    <circle cx="28" cy="340" r="5" fill="#ff6b6b"/>
    <text x="44" y="344" fill="#a0a0a0" font-size="13" font-weight="500">Personal</text>
  </g>
  <g>
    <circle cx="28" cy="368" r="5" fill="#b91c2c"/>
    <text x="44" y="372" fill="#a0a0a0" font-size="13" font-weight="500">Health</text>
  </g>

  <!-- Add Category (dashed) -->
  <rect x="12" y="390" width="236" height="32" rx="8" fill="none" stroke="#1e1e1e" stroke-width="1" stroke-dasharray="4,3"/>
  <line x1="25" y1="406" x2="35" y2="406" stroke="#5a5a5a" stroke-width="1.5" stroke-linecap="round"/>
  <line x1="30" y1="401" x2="30" y2="411" stroke="#5a5a5a" stroke-width="1.5" stroke-linecap="round"/>
  <text x="44" y="410" fill="#5a5a5a" font-size="12" font-weight="500">Add Category</text>

  <!-- Sidebar Footer -->
  <line x1="0" y1="640" x2="260" y2="640" stroke="#1e1e1e" stroke-width="1"/>
  <g transform="translate(20, 654)">
    <circle cx="9" cy="9" r="5" fill="none" stroke="#a0a0a0" stroke-width="1.5"/>
  </g>
  <text x="44" y="666" fill="#a0a0a0" font-size="12" font-weight="500">Toggle Theme</text>
  <text x="130" y="690" fill="#3a3a3a" font-size="9" font-weight="500" text-anchor="middle">Ctrl+N New • Ctrl+K Search</text>

  <!-- Main Content Area -->
  <g clip-path="url(#roundedMain)">
    <!-- Search Bar -->
    <rect x="280" y="22" width="400" height="38" rx="8" fill="#111111" stroke="#1e1e1e" stroke-width="1"/>
    <circle cx="300" cy="41" r="7" fill="none" stroke="#5a5a5a" stroke-width="1.5"/>
    <line x1="305" y1="46" x2="309" y2="50" stroke="#5a5a5a" stroke-width="1.5" stroke-linecap="round"/>
    <text x="318" y="46" fill="#5a5a5a" font-size="12">Search tasks... (Ctrl+K)</text>

    <!-- Sort & Export buttons -->
    <rect x="1110" y="22" width="38" height="38" rx="8" fill="none" stroke="transparent"/>
    <line x1="1120" y1="34" x2="1140" y2="34" stroke="#5a5a5a" stroke-width="1.5" stroke-linecap="round"/>
    <line x1="1120" y1="41" x2="1136" y2="41" stroke="#5a5a5a" stroke-width="1.5" stroke-linecap="round"/>
    <line x1="1120" y1="48" x2="1132" y2="48" stroke="#5a5a5a" stroke-width="1.5" stroke-linecap="round"/>

    <rect x="1150" y="22" width="38" height="38" rx="8" fill="none"/>
    <line x1="1169" y1="30" x2="1169" y2="46" stroke="#5a5a5a" stroke-width="1.5" stroke-linecap="round"/>
    <polyline points="1163,40 1169,46 1175,40" fill="none" stroke="#5a5a5a" stroke-width="1.5" stroke-linecap="round" stroke-linejoin="round"/>

    <!-- Stats Strip -->
    <rect x="280" y="75" width="908" height="72" rx="16" fill="#0e0e0e" stroke="#1e1e1e" stroke-width="1"/>
    <!-- Red gradient overlay -->
    <rect x="280" y="75" width="908" height="72" rx="16" fill="rgba(230,57,70,0.03)"/>

    <!-- Stat: Total -->
    <circle cx="310" cy="111" r="18" fill="rgba(230,57,70,0.12)"/>
    <rect x="304" y="103" width="12" height="12" rx="2" fill="none" stroke="#e63946" stroke-width="1.5"/>
    <text x="342" y="105" fill="#f5f5f5" font-size="20" font-weight="800">13</text>
    <text x="342" y="120" fill="#5a5a5a" font-size="8" font-weight="600" letter-spacing="1">TOTAL</text>

    <!-- Divider -->
    <line x1="507" y1="88" x2="507" y2="134" stroke="#1e1e1e" stroke-width="1"/>

    <!-- Stat: Done -->
    <circle cx="537" cy="111" r="18" fill="rgba(46,204,113,0.12)"/>
    <polyline points="531,111 535,115 543,107" fill="none" stroke="#2ecc71" stroke-width="2" stroke-linecap="round" stroke-linejoin="round"/>
    <text x="569" y="105" fill="#f5f5f5" font-size="20" font-weight="800">8</text>
    <text x="569" y="120" fill="#5a5a5a" font-size="8" font-weight="600" letter-spacing="1">DONE</text>

    <!-- Divider -->
    <line x1="734" y1="88" x2="734" y2="134" stroke="#1e1e1e" stroke-width="1"/>

    <!-- Stat: Pending -->
    <circle cx="764" cy="111" r="18" fill="rgba(243,156,18,0.12)"/>
    <circle cx="764" cy="111" r="7" fill="none" stroke="#f39c12" stroke-width="1.5"/>
    <text x="796" y="105" fill="#f5f5f5" font-size="20" font-weight="800">4</text>
    <text x="796" y="120" fill="#5a5a5a" font-size="8" font-weight="600" letter-spacing="1">PENDING</text>

    <!-- Divider -->
    <line x1="961" y1="88" x2="961" y2="134" stroke="#1e1e1e" stroke-width="1"/>

    <!-- Stat: Overdue -->
    <circle cx="991" cy="111" r="18" fill="rgba(230,57,70,0.12)"/>
    <circle cx="991" cy="111" r="7" fill="none" stroke="#e63946" stroke-width="1.5"/>
    <line x1="991" y1="107" x2="991" y2="111" stroke="#e63946" stroke-width="1.5" stroke-linecap="round"/>
    <circle cx="991" cy="114" r="1" fill="#e63946"/>
    <text x="1023" y="105" fill="#f5f5f5" font-size="20" font-weight="800">1</text>
    <text x="1023" y="120" fill="#5a5a5a" font-size="8" font-weight="600" letter-spacing="1">OVERDUE</text>

    <!-- Progress Section -->
    <rect x="280" y="160" width="908" height="68" rx="14" fill="#0e0e0e" stroke="#1e1e1e" stroke-width="1"/>
    <text x="300" y="185" fill="#f5f5f5" font-size="13" font-weight="600">Overall Progress</text>
    <text x="420" y="185" fill="#e63946" font-size="13" font-weight="700">62%</text>

    <!-- Buttons -->
    <rect x="1010" y="170" width="90" height="28" rx="5" fill="none" stroke="#1e1e1e" stroke-width="1"/>
    <text x="1055" y="188" fill="#a0a0a0" font-size="10" font-weight="600" text-anchor="middle">Clear Done</text>

    <rect x="1108" y="170" width="68" height="28" rx="5" fill="#e63946"/>
    <text x="1142" y="188" fill="#fff" font-size="10" font-weight="600" text-anchor="middle">Mark All</text>

    <!-- Progress Bar -->
    <rect x="300" y="202" width="870" height="8" rx="4" fill="#141414"/>
    <rect x="300" y="202" width="540" height="8" rx="4" fill="url(#redGrad)" filter="url(#glow)"/>

    <!-- View Header -->
    <text x="280" y="258" fill="#f5f5f5" font-size="17" font-weight="700">All Tasks</text>
    <text x="1155" y="258" fill="#5a5a5a" font-size="11" font-weight="500" text-anchor="end">5 tasks</text>

    <!-- Task Card 1 -->
    <rect x="280" y="272" width="908" height="70" rx="14" fill="#0e0e0e" stroke="#1e1e1e" stroke-width="1"/>
    <rect x="280" y="272" width="3" height="70" rx="1" fill="#e63946"/>
    <circle cx="312" cy="300" r="10" fill="#e63946"/>
    <polyline points="307,300 310,303 317,296" fill="none" stroke="#fff" stroke-width="2" stroke-linecap="round" stroke-linejoin="round"/>
    <text x="336" y="298" fill="#5a5a5a" font-size="13" font-weight="600" text-decoration="line-through">Design homepage wireframes</text>
    <text x="336" y="316" fill="#3a3a3a" font-size="10">Create low-fidelity mockups for the landing page</text>
    <rect x="336" y="324" width="68" height="18" rx="9" fill="rgba(230,57,70,0.12)"/>
    <text x="370" y="336" fill="#e63946" font-size="9" font-weight="600" text-anchor="middle">🔴 Urgent</text>
    <rect x="412" y="324" width="50" height="18" rx="9" fill="#141414"/>
    <text x="437" y="336" fill="#a0a0a0" font-size="9" font-weight="600" text-anchor="middle">⏰ Today</text>
    <rect x="470" y="324" width="42" height="18" rx="9" fill="#e63946"/>
    <text x="491" y="336" fill="#fff" font-size="9" font-weight="600" text-anchor="middle">Work</text>

    <!-- Task Card 2 -->
    <rect x="280" y="352" width="908" height="70" rx="14" fill="#0e0e0e" stroke="#1e1e1e" stroke-width="1"/>
    <circle cx="312" cy="380" r="10" fill="none" stroke="#1e1e1e" stroke-width="2"/>
    <text x="336" y="378" fill="#f5f5f5" font-size="13" font-weight="600">Review pull request #42</text>
    <text x="336" y="396" fill="#5a5a5a" font-size="10">Check code quality and leave feedback</text>
    <rect x="336" y="404" width="60" height="18" rx="9" fill="rgba(249,115,22,0.12)"/>
    <text x="366" y="416" fill="#f97316" font-size="9" font-weight="600" text-anchor="middle">🟠 High</text>
    <rect x="404" y="404" width="68" height="18" rx="9" fill="#141414"/>
    <text x="438" y="416" fill="#a0a0a0" font-size="9" font-weight="600" text-anchor="middle">📅 Feb 14</text>
    <rect x="480" y="404" width="42" height="18" rx="9" fill="#e63946"/>
    <text x="501" y="416" fill="#fff" font-size="9" font-weight="600" text-anchor="middle">Work</text>
    <rect x="530" y="404" width="78" height="18" rx="9" fill="#141414"/>
    <text x="569" y="416" fill="#a0a0a0" font-size="9" font-weight="600" text-anchor="middle">2/3 subtasks</text>

    <!-- Task Card 3 -->
    <rect x="280" y="432" width="908" height="64" rx="14" fill="#0e0e0e" stroke="#1e1e1e" stroke-width="1"/>
    <circle cx="312" cy="464" r="10" fill="none" stroke="#1e1e1e" stroke-width="2"/>
    <text x="336" y="460" fill="#f5f5f5" font-size="13" font-weight="600">Morning workout routine</text>
    <rect x="336" y="470" width="66" height="18" rx="9" fill="rgba(243,156,18,0.12)"/>
    <text x="369" y="482" fill="#f39c12" font-size="9" font-weight="600" text-anchor="middle">🟡 Medium</text>
    <rect x="410" y="470" width="50" height="18" rx="9" fill="#b91c2c"/>
    <text x="435" y="482" fill="#fff" font-size="9" font-weight="600" text-anchor="middle">Health</text>

    <!-- Task Card 4 -->
    <rect x="280" y="506" width="908" height="64" rx="14" fill="#0e0e0e" stroke="#1e1e1e" stroke-width="1"/>
    <circle cx="312" cy="538" r="10" fill="none" stroke="#1e1e1e" stroke-width="2"/>
    <text x="336" y="534" fill="#f5f5f5" font-size="13" font-weight="600">Plan weekend trip itinerary</text>
    <rect x="336" y="544" width="48" height="18" rx="9" fill="rgba(59,130,246,0.12)"/>
    <text x="360" y="556" fill="#3b82f6" font-size="9" font-weight="600" text-anchor="middle">🔵 Low</text>
    <rect x="392" y="544" width="68" height="18" rx="9" fill="rgba(230,57,70,0.12)"/>
    <text x="426" y="556" fill="#e63946" font-size="9" font-weight="600" text-anchor="middle">⚠️ Feb 10</text>
    <rect x="468" y="544" width="56" height="18" rx="9" fill="#ff6b6b"/>
    <text x="496" y="556" fill="#fff" font-size="9" font-weight="600" text-anchor="middle">Personal</text>

    <!-- Task Card 5 (faded - completed) -->
    <rect x="280" y="580" width="908" height="64" rx="14" fill="#0e0e0e" stroke="#1e1e1e" stroke-width="1" opacity="0.5"/>
    <circle cx="312" cy="612" r="10" fill="#e63946" opacity="0.5"/>
    <polyline points="307,612 310,615 317,608" fill="none" stroke="#fff" stroke-width="2" stroke-linecap="round" stroke-linejoin="round" opacity="0.5"/>
    <text x="336" y="608" fill="#5a5a5a" font-size="13" font-weight="600" text-decoration="line-through" opacity="0.5">Send project status report</text>
    <rect x="336" y="618" width="42" height="18" rx="9" fill="#e63946" opacity="0.3"/>
    <text x="357" y="630" fill="#fff" font-size="9" font-weight="600" text-anchor="middle" opacity="0.5">Work</text>
  </g>

  <!-- FAB Button -->
  <circle cx="1158" cy="670" r="26" fill="url(#redGrad)" filter="url(#glow)"/>
  <line x1="1158" y1="658" x2="1158" y2="682" stroke="#fff" stroke-width="2.5" stroke-linecap="round"/>
  <line x1="1146" y1="670" x2="1170" y2="670" stroke="#fff" stroke-width="2.5" stroke-linecap="round"/>

  <!-- Window Controls (decorative) -->
  <circle cx="1162" cy="14" r="5" fill="#e63946" opacity="0.8"/>
  <circle cx="1148" cy="14" r="5" fill="#f39c12" opacity="0.6"/>
  <circle cx="1134" cy="14" r="5" fill="#2ecc71" opacity="0.6"/>
</svg>
